<?xml version="1.0" standalone="no"?>
<!DOCTYPE svg PUBLIC "-//W3C//DTD SVG 20010904//EN"
 "http://www.w3.org/TR/2001/REC-SVG-20010904/DTD/svg10.dtd">
<svg version="1.0" xmlns="http://www.w3.org/2000/svg"
 width="512.000000pt" height="512.000000pt" viewBox="0 0 512.000000 512.000000"
 preserveAspectRatio="xMidYMid meet">
<metadata>
Created by potrace 1.16, written by Peter Selinger 2001-2019
</metadata>
<g transform="translate(0.000000,512.000000) scale(0.100000,-0.100000)"
fill="#000000" stroke="none">
<path d="M2366 4750 c-16 -16 -90 -62 -166 -104 -194 -107 -215 -124 -229
-183 -7 -26 -15 -90 -18 -141 l-6 -93 -46 -38 c-25 -21 -62 -45 -81 -53 -88
-37 -296 -177 -388 -262 -60 -54 -39 -18 36 64 71 78 87 107 101 185 12 66 13
384 1 460 -4 28 -8 41 -9 31 -3 -40 -49 -113 -127 -199 -120 -131 -133 -189
-92 -415 27 -151 20 -193 -46 -262 -92 -97 -198 -251 -278 -405 l-47 -90 -1
75 c0 41 9 112 20 157 32 133 35 225 11 316 -27 104 -166 389 -226 462 -15 19
-16 18 -12 -25 4 -50 -10 -182 -44 -405 -34 -232 -23 -275 118 -445 84 -101
87 -107 91 -162 4 -46 -3 -81 -36 -185 -22 -70 -46 -167 -52 -214 l-12 -87
-40 -18 c-22 -10 -52 -34 -66 -53 -23 -29 -27 -44 -27 -101 0 -57 4 -72 27
-102 16 -20 46 -44 67 -54 l39 -17 11 -86 c7 -47 29 -142 51 -211 27 -84 40
-143 40 -181 0 -61 1 -59 -118 -203 -113 -135 -128 -205 -92 -426 32 -196 47
-339 42 -389 -3 -28 -1 -41 6 -37 17 10 97 154 160 286 99 210 107 275 62 508
-11 56 -20 131 -20 165 l1 62 47 -90 c86 -164 184 -308 273 -400 71 -74 78
-109 51 -268 -40 -231 -29 -279 94 -421 82 -95 123 -157 125 -193 1 -10 5 5 9
32 12 76 11 394 -1 460 -14 79 -27 101 -109 192 -75 84 -94 119 -32 62 93 -88
225 -179 360 -250 42 -23 95 -56 118 -74 l41 -34 6 -103 c7 -109 19 -161 46
-192 16 -18 131 -88 264 -161 38 -20 84 -51 104 -68 29 -25 35 -28 30 -12 -3
11 -16 54 -28 95 -25 89 -47 138 -107 243 -45 79 -92 124 -187 176 -22 12 -31
19 -20 15 47 -15 215 -54 280 -64 38 -6 140 -15 225 -20 85 -5 177 -14 203
-21 45 -10 51 -16 94 -82 52 -83 88 -123 123 -142 30 -15 146 -42 218 -50 29
-3 88 -18 131 -33 l78 -28 -39 69 c-42 73 -98 156 -132 196 -36 40 -82 52
-260 66 -207 16 -254 29 -151 39 132 14 351 75 490 136 72 32 134 24 268 -35
99 -43 113 -47 165 -42 39 3 91 20 160 51 75 35 115 47 152 48 27 1 48 3 46 5
-7 7 -282 72 -333 78 -35 5 -79 -1 -163 -21 -153 -36 -170 -38 -170 -25 0 6 6
11 13 11 22 0 207 128 306 211 90 77 95 79 145 78 28 0 69 -4 91 -8 53 -10 90
3 150 54 28 23 70 55 94 71 54 36 47 38 -95 32 -86 -4 -108 -9 -149 -31 -52
-30 -55 -31 -55 -19 0 20 143 115 200 133 86 27 91 30 209 144 59 56 121 110
140 119 18 10 31 19 29 21 -6 5 -170 -24 -233 -41 -131 -36 -170 -68 -236
-193 -18 -35 -53 -85 -77 -110 -44 -47 -47 -41 -7 14 60 83 70 121 73 275 l3
145 -56 -100 c-111 -200 -108 -192 -95 -298 15 -118 8 -134 -90 -218 -150
-129 -285 -227 -295 -217 -2 2 27 28 66 58 70 56 127 128 147 189 15 42 16
337 2 346 -5 3 -10 2 -10 -3 0 -9 -65 -88 -145 -175 -77 -82 -95 -137 -95
-283 0 -144 -9 -163 -100 -209 -86 -43 -236 -98 -337 -124 -89 -23 -139 -28
-113 -11 8 5 23 10 33 10 11 0 61 19 113 42 140 61 157 87 174 276 5 57 12
120 16 140 l6 37 -40 -45 c-22 -25 -78 -74 -125 -109 -94 -71 -125 -115 -151
-214 -21 -81 -44 -124 -80 -150 -30 -21 -39 -22 -246 -22 -159 0 -238 5 -302
17 -129 25 -249 59 -242 69 5 9 20 8 159 -15 114 -20 170 -19 218 2 20 9 93
71 160 137 68 66 134 128 148 138 23 17 18 17 -161 15 -184 -3 -185 -3 -252
-35 -64 -30 -138 -93 -189 -160 -22 -30 -31 -34 -107 -44 l-83 -11 -122 60
c-161 79 -262 147 -382 256 l-40 37 60 -29 c140 -68 203 -85 315 -86 103 0
107 0 240 52 159 62 282 113 292 121 4 3 -34 7 -85 7 -67 1 -118 9 -187 28
-185 52 -307 45 -457 -25 -81 -38 -157 -48 -199 -26 -106 56 -282 292 -371
497 -19 45 -33 83 -30 86 2 2 26 -22 53 -53 70 -84 189 -200 222 -217 67 -35
169 -45 402 -40 123 3 225 6 227 7 1 2 -36 18 -84 36 -65 26 -116 57 -212 129
-189 143 -275 192 -358 203 -46 6 -92 5 -141 -3 -82 -14 -109 -6 -143 42 -23
32 -67 201 -75 290 -6 66 -6 67 19 74 14 3 40 18 58 33 98 83 70 255 -49 294
l-35 11 7 68 c7 80 51 256 72 287 32 49 58 58 142 44 154 -24 266 15 454 161
151 118 185 139 268 171 l85 32 -250 3 c-386 5 -385 5 -599 -241 -32 -38 -60
-67 -62 -65 -6 6 25 86 57 151 72 141 211 330 299 403 70 60 133 57 275 -11
112 -54 252 -58 430 -10 72 19 125 26 190 27 l90 0 -40 21 c-22 11 -121 52
-220 90 l-180 70 -101 0 c-112 -1 -158 -12 -284 -71 -41 -19 -79 -37 -85 -39
-5 -3 13 16 40 42 89 82 227 174 360 240 l130 64 85 -10 c79 -9 87 -12 110
-42 63 -81 107 -119 178 -155 l76 -37 185 -2 c179 -3 185 -2 162 15 -14 9 -81
72 -150 139 -127 123 -174 153 -240 153 -14 0 -85 -10 -158 -22 -117 -19 -159
-20 -141 -3 11 11 203 55 310 71 161 23 442 17 481 -12 34 -23 64 -79 83 -151
27 -104 56 -145 153 -218 50 -37 107 -86 127 -109 l36 -41 -7 37 c-3 20 -10
83 -15 140 -12 134 -25 176 -64 213 -31 29 -195 105 -226 105 -8 0 -22 5 -30
11 -23 16 70 1 170 -28 148 -42 301 -112 343 -155 l37 -39 0 -119 c0 -155 16
-201 107 -302 36 -40 83 -94 103 -120 21 -26 40 -44 44 -41 3 4 6 77 6 163 0
155 0 158 -30 216 -38 74 -48 86 -137 158 -40 32 -73 60 -73 62 0 2 27 -13 61
-33 71 -45 189 -137 279 -220 73 -68 68 -48 59 -238 -4 -77 -3 -82 31 -135 19
-30 53 -91 77 -135 l42 -80 1 126 c0 146 -10 190 -66 275 -38 58 -65 109 -46
89 48 -52 109 -138 137 -194 49 -99 97 -134 225 -168 63 -17 223 -44 228 -39
1 2 -16 15 -40 29 -24 14 -89 71 -144 126 -94 92 -107 101 -170 121 -38 11
-87 33 -109 47 -51 34 -126 96 -121 101 2 2 26 -8 53 -22 64 -32 152 -46 233
-38 l65 7 -35 21 c-19 11 -60 41 -91 66 -85 69 -88 70 -192 62 -51 -4 -99 -7
-107 -5 -11 2 -118 87 -140 111 -27 31 -235 169 -274 183 -6 2 -8 8 -4 12 4 4
67 -7 140 -25 155 -38 188 -37 368 10 63 17 122 30 132 30 9 0 20 5 24 11 4 7
0 9 -14 5 -29 -9 -102 9 -174 44 -77 38 -151 60 -196 60 -18 0 -70 -16 -115
-36 -183 -81 -195 -82 -357 -20 -136 53 -269 89 -399 107 -79 11 -89 15 -65
22 16 4 90 12 164 17 175 11 214 18 253 44 37 25 133 155 176 239 l30 57 -27
-14 c-44 -23 -131 -46 -232 -61 -52 -8 -112 -19 -132 -25 -47 -13 -118 -82
-158 -153 -16 -30 -38 -61 -48 -69 -22 -20 -135 -36 -292 -43 -134 -5 -262
-25 -375 -56 -38 -10 -72 -19 -74 -19 -3 0 26 21 65 48 76 52 115 102 174 227
31 65 94 255 87 261 -1 1 -15 -11 -31 -26z"/>
<path d="M2445 3679 c-331 -48 -649 -264 -816 -554 -290 -503 -162 -1135 300
-1486 87 -66 264 -153 376 -185 581 -165 1195 161 1389 738 19 57 32 78 58 96
52 37 180 99 228 112 74 18 78 21 50 32 -14 5 -72 12 -130 14 -164 8 -150 -3
-150 118 0 547 -409 1023 -955 1111 -97 16 -254 18 -350 4z m342 -19 c513 -83
898 -498 943 -1015 5 -57 7 -119 3 -138 l-5 -34 -47 14 c-32 10 -73 13 -140
10 -133 -8 -218 -50 -361 -182 -126 -116 -189 -159 -289 -198 -64 -25 -90 -29
-163 -29 -132 1 -228 35 -277 98 -12 15 -21 21 -21 14 0 -30 97 -107 176 -140
75 -32 85 -34 204 -34 112 -1 133 2 205 27 88 31 231 128 365 247 122 108 225
160 317 160 58 0 38 -26 -48 -60 -82 -33 -148 -79 -245 -169 -30 -28 -67 -59
-82 -68 -15 -10 -47 -33 -71 -51 -63 -47 -88 -58 -194 -87 -241 -64 -467 -31
-603 88 -47 41 -102 140 -135 242 -32 100 -30 294 4 412 70 242 242 353 526
341 95 -4 115 -9 193 -43 111 -48 178 -106 217 -188 34 -69 36 -67 21 19 -31
172 -157 377 -283 460 -82 55 -135 78 -213 95 -80 17 -272 15 -360 -4 -336
-75 -589 -311 -691 -644 -24 -79 -27 -104 -27 -248 -1 -139 2 -171 22 -240 92
-316 305 -536 622 -641 80 -26 96 -28 255 -29 200 0 252 11 445 99 168 76 265
144 415 287 161 154 215 202 222 196 7 -8 -65 -175 -104 -241 -153 -262 -402
-448 -708 -527 -115 -29 -321 -36 -444 -15 -365 64 -664 286 -823 610 -210
431 -134 928 196 1275 158 165 381 285 609 326 87 16 289 19 374 5z"/>
<path d="M2465 3610 c-85 -14 -224 -55 -299 -89 -146 -66 -305 -195 -408 -331
-65 -85 -152 -264 -177 -366 -107 -424 46 -865 388 -1125 86 -65 265 -153 366
-179 353 -91 707 -8 986 232 88 75 239 272 239 312 0 5 -42 -31 -92 -80 -110
-107 -131 -123 -285 -220 -128 -81 -223 -124 -341 -156 -106 -28 -323 -31
-437 -4 -221 51 -425 180 -561 357 -149 194 -223 457 -195 691 51 419 336 742
749 845 103 26 351 23 457 -5 102 -28 261 -106 346 -170 223 -169 379 -468
379 -727 0 -57 2 -65 19 -65 10 0 33 -3 50 -6 l31 -6 0 64 c0 237 -111 509
-286 698 -129 138 -330 257 -521 306 -111 28 -305 40 -408 24z"/>
</g>
</svg>
